<svg xmlns="http://www.w3.org/2000/svg" viewBox="0 0 256.07 67.11"><defs><style>.cls-1{fill:#c00714;}</style></defs><g id="Capa_2" data-name="Capa 2"><g id="Layer_1" data-name="Layer 1"><path class="cls-1" d="M190.12,27.91a21,21,0,0,0-2,5.1c-2.58,8.3-5.12,16.62-7.68,24.93-.12.38-.24.76-.37,1.14-.93,2.79-2.1,3.2-4.6,1.6-.6-.39-1.14-.88-1.71-1.31-3-2.26-3.78-5.09-2.57-8.67,2.89-8.55,6.08-17,9.38-25.37,1.66-4.24,3.19-8.52,5-12.72A9.62,9.62,0,0,0,186,6.77a18.68,18.68,0,0,1-.43-4.28c0-1.73.79-2.5,2.53-2.49a16,16,0,0,1,6.75,1.41,5,5,0,0,1,2.73,4q1.07,5.9,2,11.8c.66,4.1,1.31,8.21,1.58,12.36a1.29,1.29,0,0,0,.46,1.09c.65-.55.68-1.38.91-2.12q3.51-11.08,8-21.79a19.79,19.79,0,0,1,2.59-4.84c1.29-1.6,2.73-1.66,4,0a34.5,34.5,0,0,0,3.82,4.88c.77.74.48,1.81.1,2.72-.77,1.84-1.55,3.67-2.38,5.49a239.3,239.3,0,0,0-15.43,44,18.7,18.7,0,0,1-1,3.19c-.6,1.4-1.34,1.67-2.64.91-1.66-1-3.24-2.05-4.83-3.12a3.46,3.46,0,0,1-1.56-2.83c0-1-.19-1.92-.15-2.87.27-6.83-1-13.53-1.84-20.26A33.18,33.18,0,0,0,190.12,27.91Z"/><path class="cls-1" d="M101.26,36.53a4.06,4.06,0,0,0-1.41,2.33c-2.65,6.85-5.47,13.63-7.63,20.66-.72,2.33-1.44,2.57-3.64,1.36a4.87,4.87,0,0,0-2-.67c-2.85-.19-3.71-2.45-4.67-4.54-.41-.87.2-1.7.51-2.5C86.23,43,90.2,32.91,94.77,23.06,96,20.38,97.14,17.65,98.42,15a2,2,0,0,0-.17-2.18,11.12,11.12,0,0,1-1.73-5.66c-.12-2.51.49-3.5,2.82-4.37A35.3,35.3,0,0,1,111.55.7a29.52,29.52,0,0,1,7.38.63,14.84,14.84,0,0,1,10.78,13,12.3,12.3,0,0,1-3.1,8.82,47.29,47.29,0,0,1-12.77,10.75c-.21.12-.43.21-.64.32-1.72,1-1.81,1.07-1.28,3,1,3.62,1.93,7.25,3.16,10.8a46.66,46.66,0,0,0,6.16,12.65c.58.79,1.12,1.65.42,2.62-.57.79-1.25,1.47-2.41,1.08-1-.34-1.43.39-2,1-1.86,2.14-2.33,2.17-4.88.84a8.44,8.44,0,0,1-3.48-3.83,69,69,0,0,1-5.21-14.12A84.17,84.17,0,0,1,101.26,36.53Zm4-10.71c3.61-1.38,11-6.33,13.29-8.9a9.14,9.14,0,0,0,1-1.33c1.16-2,.44-3.74-1.82-4.08a16,16,0,0,0-5.47.15A2.8,2.8,0,0,0,110,13.53c-1.52,3.68-3.11,7.33-4.66,11A1.32,1.32,0,0,0,105.28,25.82Z"/><path class="cls-1" d="M71.61,7.42c.56-1.47.26-3,.33-4.5C72.06.55,72.82,0,75.16.61c4.59,1.21,6.4,3.45,6.41,8.22a100.92,100.92,0,0,1-1.48,14.52c-1.66,11.78-4,23.44-6.66,35a31.09,31.09,0,0,1-1.26,4.12c-.8,2.11-2.24,2.7-4.11,1.5a22.44,22.44,0,0,0-5.23-2.79c-1.54-.48-1.94-1.63-1.47-3.27.89-3.07,1.88-6.1,2.77-9.16.44-1.53.75-3.1,1.12-4.65.22-.89,0-1.46-1-1.32-2.53.34-5,.73-7.58,1.08a3.62,3.62,0,0,0-2.87,2.24C52.08,49.47,50.43,52.84,49,56.3a25.45,25.45,0,0,1-1.68,3.44,2.89,2.89,0,0,1-3.87,1.47,12.85,12.85,0,0,1-5.76-4.13,2.63,2.63,0,0,1-.33-2.91A71.39,71.39,0,0,1,40.73,47,3.56,3.56,0,0,0,41,43.63,15.08,15.08,0,0,1,40,40c-.33-2.09.42-3.3,2.37-4.17a10.69,10.69,0,0,1,3.47-.84A3.29,3.29,0,0,0,48.61,33,153.71,153.71,0,0,1,65.05,9.2c.2-.24.43-.48.61-.74a3.4,3.4,0,0,1,4.59-1.32A1.57,1.57,0,0,0,71.61,7.42ZM60.63,34A14.7,14.7,0,0,1,66,33.72c1.24.27,1.68-.25,1.9-1.43.88-4.53,1.84-9,2.76-13.58,0-.09-.13-.21-.32-.5A99.89,99.89,0,0,0,60.63,34Z"/><path class="cls-1" d="M246.05,7.56c.44-1.72.09-3.33.32-4.91.32-2.15.95-2.6,3-2.11,4.85,1.12,6.93,4,6.62,9.28-.19,3.19-.51,6.37-.93,9.54-1.72,12.9-4.17,25.67-7.06,38.36a29.83,29.83,0,0,1-1.42,4.81c-.82,2-2.19,2.66-3.94,1.55a28.34,28.34,0,0,0-5.65-3c-1.44-.52-1.7-1.65-1.17-3.42.94-3.14,1.95-6.25,2.86-9.39.42-1.45.69-2.95,1-4.42.18-.76-.24-1.14-.88-1-2.83.48-5.73.53-8.52,1.24a3.48,3.48,0,0,0-2.15,2.09c-1.69,3.26-3.26,6.58-4.68,10a28,28,0,0,1-1.64,3.45c-1.07,1.84-2.3,2.31-4.23,1.58a13.43,13.43,0,0,1-5.4-3.87,2.92,2.92,0,0,1-.35-3.35A72.75,72.75,0,0,1,215.2,47a3.5,3.5,0,0,0,.26-3.39,12,12,0,0,1-1-4.15,3.45,3.45,0,0,1,2.21-3.61,10,10,0,0,1,3.46-.88,3.44,3.44,0,0,0,3-2A153.41,153.41,0,0,1,239.22,9.53C241.92,6.31,242,6.28,246.05,7.56ZM235.13,33.88a28.94,28.94,0,0,1,4.93-.24c1.88.24,1.92.18,2.32-1.7.86-4.05,1.68-8.1,2.53-12.14a2.75,2.75,0,0,0,.15-1.54,3.93,3.93,0,0,0-1.53,1.66A96,96,0,0,0,235.13,33.88Z"/><path class="cls-1" d="M159.23,7.6c.45-1.7.1-3.31.33-4.89.32-2.26,1-2.7,3.22-2.12,4.68,1.21,6.53,3.63,6.46,8.69a61.54,61.54,0,0,1-.46,6.21,408.52,408.52,0,0,1-7.59,42.39,34.47,34.47,0,0,1-1.37,4.58c-.78,2.12-2.26,2.76-4.09,1.54a25.89,25.89,0,0,0-5.45-2.89c-1.46-.55-1.75-1.66-1.24-3.4.93-3.13,1.94-6.25,2.86-9.38.4-1.38.63-2.8,1-4.19.24-.92,0-1.46-1-1.33-2.53.32-5.05.71-7.58,1.06a3.64,3.64,0,0,0-2.89,2.21c-1.67,3.27-3.25,6.58-4.68,10a29.49,29.49,0,0,1-1.63,3.46c-1.11,1.93-2.36,2.36-4.42,1.56a13.82,13.82,0,0,1-5-3.57,2.88,2.88,0,0,1-.56-3.51c1-2.08,1.86-4.24,3-6.27.84-1.57,1.29-3,.4-4.72a7.86,7.86,0,0,1-.81-3.23c-.13-2.17.53-3.24,2.56-4.07a10.51,10.51,0,0,1,3.26-.74A3.26,3.26,0,0,0,136.25,33a152.27,152.27,0,0,1,16-23.27c.1-.12.2-.25.31-.37C155.1,6.3,155.25,6.25,159.23,7.6Zm-.88,10.75A71,71,0,0,0,148.29,34a15.11,15.11,0,0,1,5.76-.22c.92.16,1.27-.4,1.42-1.21.24-1.33.5-2.65.77-4Q157.29,23.47,158.35,18.35Z"/><path class="cls-1" d="M19.51,36.36c-2.19,5.09-3.8,9.93-5.47,14.75-.89,2.56-1.66,5.16-2.51,7.74s-1.61,3-4.23,1.89a13.68,13.68,0,0,0-3.94-.9C.52,59.53-.57,57.93.28,55.17c.64-2.06,1.44-4.06,2.22-6.07,4-10.17,7.61-20.51,12.64-30.23C17,15.33,18,12.2,16.15,8.34c-1.09-2.26-.45-3.5,1.79-4.42C24.5,1.23,31.28,0,38.28,1.84a13.28,13.28,0,0,1,10,11.82,12.2,12.2,0,0,1-.93,5.85,21.92,21.92,0,0,1-3.27,5.56A67.28,67.28,0,0,1,27.5,40.14C24,42.36,22.88,42,20.8,38.55Zm3.19-7.3a2.16,2.16,0,0,0,.59,0,8.75,8.75,0,0,0,1.1-.45A33.69,33.69,0,0,0,37.05,17.24a7.32,7.32,0,0,0,.89-1.68c.62-1.75.09-2.74-1.7-3.22a11.9,11.9,0,0,0-6.58.45,1.72,1.72,0,0,0-1.13,1.13c-1.8,4.24-3.62,8.48-5.39,12.74C22.85,27.36,22.32,28.05,22.7,29.06Z"/></g></g></svg>